<?xml version="1.0" standalone="no"?>
<!DOCTYPE svg PUBLIC "-//W3C//DTD SVG 20010904//EN"
 "http://www.w3.org/TR/2001/REC-SVG-20010904/DTD/svg10.dtd">
<svg version="1.0" xmlns="http://www.w3.org/2000/svg"
 width="1170.000000pt" height="1170.000000pt" viewBox="0 0 1170.000000 1170.000000"
 preserveAspectRatio="xMidYMid meet">
<metadata>
Created by potrace 1.14, written by Peter Selinger 2001-2017
</metadata>
<g transform="translate(0.000000,1170.000000) scale(0.100000,-0.100000)"
fill="#000000" stroke="none">
<path d="M3720 6467 c-42 -39 -132 -124 -200 -188 -69 -65 -159 -148 -200
-187 -60 -56 -77 -67 -85 -56 -6 9 -10 90 -9 205 0 146 -3 192 -13 196 -23 9
-114 9 -120 0 -3 -5 -6 -60 -6 -123 0 -95 -3 -114 -16 -118 -92 -23 -111 -30
-111 -35 0 -4 29 -50 65 -102 66 -94 66 -94 64 -159 0 -36 -1 -84 0 -107 l1
-43 71 0 c38 0 68 4 65 8 -6 9 27 60 97 150 l49 62 50 -72 c27 -40 61 -90 75
-110 l26 -38 89 0 90 0 -35 48 c-19 26 -58 81 -87 122 -29 41 -68 95 -86 120
l-33 46 66 84 c35 47 74 98 86 113 12 16 33 43 47 60 14 18 28 37 32 42 5 6
33 43 64 83 30 39 52 72 47 72 -4 0 -42 -33 -83 -73z"/>
<path d="M1724 6439 c-94 -12 -149 -37 -213 -99 -130 -124 -127 -364 6 -492
111 -108 315 -127 457 -44 148 87 203 293 121 456 -28 56 -102 125 -160 151
-55 24 -146 36 -211 28z m139 -118 c44 -17 105 -80 123 -126 34 -89 17 -194
-41 -264 -63 -74 -196 -94 -292 -43 -35 19 -82 80 -95 124 -17 59 -14 148 7
192 51 108 184 160 298 117z"/>
<path d="M2550 6440 c-17 -4 -45 -64 -151 -330 -71 -179 -132 -333 -135 -343
-5 -16 1 -18 66 -15 l72 3 20 55 c12 30 24 60 29 65 9 12 297 14 315 3 6 -4
21 -35 33 -68 l22 -60 71 0 c62 0 70 2 66 18 -10 33 -261 657 -269 666 -9 10
-105 14 -139 6z m175 -441 c-5 -7 -235 -12 -235 -4 0 6 111 298 117 309 3 4
32 -61 64 -145 32 -84 56 -156 54 -160z"/>
<path d="M4115 6442 c-16 -2 -43 -61 -144 -315 -69 -172 -131 -327 -138 -344
l-13 -33 72 0 73 0 24 63 c13 34 28 64 32 67 5 3 77 5 161 5 l153 0 25 -68 25
-67 73 0 c41 0 72 3 70 8 -1 4 -63 158 -137 342 -73 184 -135 337 -136 339 -5
4 -114 7 -140 3z m111 -257 c25 -66 52 -136 59 -156 l13 -36 -124 -1 -123 -1
18 47 c10 26 37 98 61 159 24 62 45 112 46 110 2 -2 24 -57 50 -122z"/>
<path d="M4683 6442 l-33 -3 0 -345 0 -344 66 0 65 0 -1 53 c-1 28 -1 86 -1
129 l1 76 60 0 59 -1 77 -128 76 -129 75 0 c67 0 73 2 64 18 -6 9 -44 69 -84
132 l-74 115 51 28 c62 33 94 78 105 144 16 105 -34 199 -124 235 -41 16 -77
20 -200 21 -82 1 -165 1 -182 -1z m332 -126 c68 -45 61 -155 -13 -185 -29 -12
-208 -18 -219 -8 -3 4 -6 27 -5 52 0 25 1 71 1 103 l1 59 105 -3 c77 -2 113
-7 130 -18z"/>
<path d="M5605 6422 c-64 -27 -93 -51 -115 -96 -35 -74 -21 -161 34 -208 31
-27 79 -46 185 -74 51 -14 104 -32 117 -41 52 -34 39 -103 -23 -130 -71 -29
-160 -14 -242 42 l-51 34 -31 -45 c-35 -52 -33 -59 38 -100 147 -87 373 -61
438 50 44 76 39 162 -14 219 -36 39 -80 61 -187 90 -108 29 -150 50 -159 77
-8 25 9 55 41 77 51 33 188 9 246 -44 20 -18 17 -21 68 49 l20 27 -32 24 c-59
44 -108 60 -203 63 -67 2 -100 -2 -130 -14z"/>
<path d="M6110 6095 l0 -345 233 0 234 0 -1 53 -2 52 -172 3 -172 2 0 95 0 95
169 0 170 0 0 54 0 54 -147 1 c-81 0 -157 0 -169 0 -22 1 -23 5 -23 86 l0 85
83 1 c45 0 122 1 172 2 l90 2 0 50 0 50 -232 3 -233 2 0 -345z"/>
<path d="M6699 6423 c0 -10 -1 -165 -2 -346 l-2 -327 63 0 62 0 0 130 0 130
55 0 55 0 33 -52 c19 -29 53 -88 77 -130 l44 -78 68 0 c37 0 68 3 68 8 0 4
-36 63 -79 132 l-79 125 37 16 c46 21 107 89 115 131 22 110 -18 207 -104 254
-30 16 -61 19 -222 22 -176 3 -188 2 -189 -15z m335 -103 c72 -27 80 -141 13
-184 -20 -13 -105 -21 -199 -17 l-28 1 0 105 0 105 94 0 c52 0 106 -4 120 -10z"/>
<path d="M7350 6435 c0 -2 29 -78 63 -167 35 -90 95 -243 132 -340 l68 -178
76 0 76 0 132 343 132 342 -66 3 c-36 2 -67 1 -69 -1 -3 -2 -48 -121 -100
-263 -52 -143 -99 -262 -103 -267 -4 -4 -16 19 -28 50 -11 32 -39 108 -61 168
-22 61 -57 156 -77 213 l-38 102 -68 0 c-38 0 -69 -2 -69 -5z"/>
<path d="M8152 6095 l0 -345 62 0 61 0 0 343 0 342 -62 3 -61 3 0 -346z"/>
<path d="M8617 6417 c-120 -46 -200 -148 -215 -279 -26 -215 113 -384 327
-396 108 -6 168 15 238 82 29 29 53 57 53 64 0 7 -22 23 -49 36 l-49 23 -21
-28 c-70 -95 -240 -90 -321 9 -41 49 -57 105 -54 181 3 76 38 140 101 184 82
58 214 45 271 -28 11 -14 23 -25 28 -25 19 0 94 43 94 54 0 21 -81 95 -130
118 -65 33 -194 35 -273 5z"/>
<path d="M9150 6095 l0 -345 233 0 233 0 0 53 -1 52 -173 3 -172 2 0 95 0 95
169 0 168 0 2 54 1 54 -148 1 c-81 0 -157 0 -169 0 -22 1 -23 5 -23 86 l0 85
28 0 c15 1 91 1 169 1 98 1 143 4 146 12 2 7 3 30 3 52 l-1 40 -233 3 -232 2
0 -345z"/>
<path d="M9907 6426 c-99 -37 -149 -104 -143 -192 2 -27 9 -61 16 -75 16 -35
101 -84 180 -104 36 -9 86 -23 112 -31 151 -49 74 -188 -90 -162 -59 9 -147
51 -156 74 -9 23 -21 16 -55 -32 -32 -43 -32 -46 -16 -64 43 -48 169 -90 267
-90 162 0 269 96 254 228 -11 95 -61 136 -223 183 -118 34 -158 51 -165 71 -8
24 7 61 34 81 45 34 162 22 228 -23 14 -9 30 -20 37 -23 14 -9 73 70 66 89 -3
8 -34 28 -70 46 -56 27 -79 32 -152 35 -57 2 -99 -2 -124 -11z"/>
<path d="M5712 5499 c-12 -31 -64 -280 -60 -285 12 -12 31 22 44 78 16 68 43
105 82 113 29 5 46 -19 39 -58 -14 -72 -17 -93 -22 -114 -4 -16 -1 -20 13 -16
10 2 19 12 20 21 1 9 3 24 5 32 12 52 18 113 13 134 -8 33 -43 39 -88 17 -21
-10 -38 -17 -38 -14 0 2 5 24 11 49 9 33 9 48 1 56 -8 8 -14 5 -20 -13z"/>
<path d="M5940 5511 c0 -5 -3 -16 -6 -25 -4 -11 -1 -16 10 -16 9 0 16 4 16 9
0 5 3 16 6 25 4 11 1 16 -10 16 -9 0 -16 -4 -16 -9z"/>
<path d="M6264 5512 c-6 -4 -23 -63 -38 -132 -14 -69 -29 -135 -32 -148 -4
-20 -2 -22 14 -13 12 6 22 26 26 53 4 24 6 43 4 43 -2 0 8 15 21 33 30 42 86
71 103 54 21 -21 -1 -45 -70 -79 -2 0 8 -26 23 -57 18 -38 30 -53 40 -50 12 5
11 12 -5 45 -24 45 -25 59 -6 59 18 0 56 47 56 69 -1 48 -60 60 -111 22 l-30
-22 7 38 c4 21 10 48 15 60 9 24 0 36 -17 25z"/>
<path d="M8124 5512 c-19 -13 -25 -42 -8 -42 15 0 28 22 22 39 -1 6 -8 7 -14
3z"/>
<path d="M8446 5512 c-6 -11 -45 -183 -53 -236 -4 -30 -1 -43 11 -52 20 -14
56 -7 56 12 0 7 -6 11 -14 8 -24 -9 -27 12 -10 88 9 40 17 82 19 93 2 11 6 37
10 58 5 24 3 37 -3 37 -6 0 -13 -4 -16 -8z"/>
<path d="M9142 5503 c-6 -10 -13 -38 -18 -63 -4 -25 -8 -47 -9 -50 -10 -43
-16 -71 -20 -98 -3 -19 -7 -39 -8 -45 -3 -14 42 -37 59 -30 8 3 14 11 14 19 0
8 -6 11 -15 8 -26 -10 -26 20 0 142 14 65 25 122 25 127 0 14 -19 7 -28 -10z"/>
<path d="M9611 5498 c-10 -27 -7 -33 14 -25 17 7 21 47 5 47 -6 0 -14 -10 -19
-22z"/>
<path d="M5450 5494 c0 -10 12 -14 45 -14 42 0 45 -2 41 -22 -37 -179 -46
-230 -41 -238 12 -19 24 0 36 58 6 31 12 62 14 67 1 6 8 38 15 73 l13 62 47 0
c33 0 50 5 54 15 4 12 -12 15 -109 14 -93 0 -115 -3 -115 -15z"/>
<path d="M6640 5499 c-32 -13 -78 -56 -96 -91 -8 -15 -14 -45 -14 -68 0 -105
85 -156 170 -101 23 15 24 15 17 -2 -5 -14 -3 -18 10 -15 11 2 21 22 31 66 7
35 11 66 8 69 -7 8 -77 6 -85 -2 -8 -9 20 -24 35 -18 38 14 16 -55 -24 -76
-64 -34 -119 -6 -129 65 -14 106 118 202 176 128 20 -26 41 -25 41 1 0 22 -50
55 -84 54 -17 0 -42 -5 -56 -10z"/>
<path d="M8692 5490 c-71 -44 -61 -114 20 -140 26 -8 55 -23 64 -32 16 -16 16
-19 1 -42 -24 -36 -69 -42 -120 -17 -44 22 -75 14 -47 -13 47 -43 141 -41 183
4 50 56 33 98 -53 128 -46 15 -56 23 -58 44 -6 49 76 77 125 43 31 -22 43 2
13 27 -29 24 -87 23 -128 -2z"/>
<path d="M7980 5481 c0 -30 -11 -51 -26 -51 -18 0 -18 -16 0 -23 11 -5 11 -14
1 -54 -20 -81 -24 -108 -16 -122 10 -16 41 -21 64 -9 24 12 22 32 -4 25 -29
-8 -33 11 -17 90 11 54 18 69 33 71 33 6 42 22 12 22 -15 0 -27 1 -27 3 0 1 4
17 9 35 9 28 7 32 -10 32 -12 0 -19 -7 -19 -19z"/>
<path d="M9479 5478 c-1 -13 -1 -27 0 -31 1 -5 -8 -11 -19 -14 -22 -6 -27 -19
-8 -25 10 -4 10 -18 0 -69 -7 -35 -15 -74 -17 -86 -3 -16 3 -27 18 -35 12 -6
22 -11 22 -11 0 0 10 5 23 12 23 12 31 37 9 28 -8 -3 -20 -2 -27 3 -10 6 -10
20 1 76 7 38 12 72 11 77 -1 4 12 7 28 7 17 0 30 5 30 10 0 6 -11 10 -24 10
-22 0 -23 3 -16 35 7 30 5 35 -11 35 -13 0 -19 -8 -20 -22z"/>
<path d="M6090 5429 c-13 -6 -33 -18 -44 -27 -18 -16 -18 -16 -12 6 5 16 3 22
-8 22 -16 0 -17 -3 -41 -113 -16 -75 -15 -114 4 -103 4 3 14 33 20 67 14 71
33 105 64 116 68 23 76 0 43 -127 -11 -41 -11 -50 1 -54 17 -7 25 16 43 113
14 73 13 74 -9 92 -26 21 -27 21 -61 8z"/>
<path d="M6868 5419 c-94 -48 -86 -212 11 -203 14 1 31 2 37 3 6 1 24 11 38
22 21 17 24 24 14 30 -8 5 -21 1 -34 -12 -30 -28 -74 -22 -93 13 -9 15 -13 29
-10 32 3 3 30 7 61 10 85 7 105 22 98 76 -5 42 -68 57 -122 29z m91 -23 c24
-29 -7 -56 -70 -61 -41 -4 -54 8 -38 33 24 38 86 55 108 28z"/>
<path d="M7105 5427 c-108 -36 -120 -196 -16 -213 8 -2 31 4 52 13 77 30 106
134 52 185 -30 28 -43 30 -88 15z m65 -37 c38 -38 16 -117 -39 -140 -26 -10
-35 -10 -56 4 -41 27 -31 96 19 138 28 23 52 22 76 -2z"/>
<path d="M7312 5424 c-41 -17 -59 -59 -37 -84 8 -9 33 -22 55 -29 41 -12 52
-35 28 -59 -17 -17 -69 -15 -95 3 -18 13 -22 13 -27 0 -6 -16 19 -33 57 -41
36 -7 86 16 102 45 12 24 12 31 -1 49 -8 11 -28 23 -44 27 -17 4 -37 14 -46
22 -13 14 -13 17 2 34 19 21 64 25 81 8 12 -12 33 -4 33 11 0 9 -21 17 -57 24
-10 2 -33 -2 -51 -10z"/>
<path d="M7529 5418 c-27 -17 -31 -17 -25 -3 4 12 1 16 -11 13 -13 -2 -23 -33
-44 -133 -32 -148 -34 -168 -16 -163 6 3 18 30 26 62 l14 57 21 -20 c32 -30
83 -19 124 26 31 36 37 54 33 103 -6 65 -65 93 -122 58z m79 -36 c32 -41 -4
-124 -60 -137 -41 -10 -72 26 -63 72 9 48 25 71 55 81 29 10 50 5 68 -16z"/>
<path d="M7755 5423 c-47 -23 -70 -61 -70 -115 0 -64 31 -98 83 -92 20 3 45
12 55 22 14 12 18 13 15 2 -2 -7 4 -15 12 -17 12 -3 18 14 28 74 7 43 15 90
19 106 4 21 2 27 -11 27 -9 0 -16 -7 -16 -17 0 -15 -1 -15 -18 0 -25 23 -63
27 -97 10z m81 -35 c17 -17 19 -37 10 -74 -14 -61 -77 -91 -111 -54 -25 28
-28 55 -10 90 28 54 79 71 111 38z"/>
<path d="M8221 5422 c-52 -26 -76 -65 -75 -119 1 -37 6 -51 28 -70 28 -24 55
-25 96 -3 18 9 24 9 30 0 11 -18 41 -5 34 14 -3 8 1 47 10 85 20 87 20 101 1
101 -8 0 -15 -7 -15 -17 0 -14 -2 -15 -17 -1 -30 26 -56 29 -92 10z m63 -23
c45 -21 42 -94 -6 -134 -36 -30 -59 -32 -83 -5 -42 46 -8 127 62 149 1 1 13
-4 27 -10z"/>
<path d="M8927 5421 c-70 -35 -98 -126 -54 -176 27 -32 60 -38 101 -21 54 23
81 61 81 116 0 79 -58 116 -128 81z m86 -44 c23 -30 18 -64 -16 -101 -66 -74
-149 -4 -97 82 33 55 81 63 113 19z"/>
<path d="M9719 5420 c-98 -51 -100 -194 -3 -204 64 -7 123 46 131 118 4 35 1
47 -18 68 -32 35 -66 41 -110 18z m64 -21 c31 -17 36 -27 32 -68 -4 -40 -51
-91 -84 -91 -25 0 -61 45 -56 71 9 46 18 61 48 80 38 22 33 22 60 8z"/>
<path d="M9977 5417 c-40 -21 -44 -21 -39 -5 3 11 -1 18 -10 18 -11 0 -21 -29
-36 -107 -12 -58 -21 -108 -19 -109 11 -11 30 23 43 76 17 72 27 88 68 105 58
25 66 3 42 -110 -7 -33 -9 -61 -5 -63 15 -6 23 -3 25 10 1 7 5 27 8 43 3 17
10 51 14 77 15 77 -19 101 -91 65z"/>
<path d="M10190 5433 c-34 -6 -70 -42 -70 -70 0 -17 9 -27 38 -39 77 -34 83
-41 57 -68 -21 -20 -79 -21 -95 -1 -9 11 -16 13 -24 5 -18 -18 18 -42 67 -44
89 -2 131 80 57 111 -59 26 -65 30 -68 46 -5 27 42 43 81 29 33 -13 57 -2 35
15 -18 15 -49 21 -78 16z"/>
<path d="M5906 5363 c-28 -129 -30 -143 -13 -143 11 0 20 22 31 73 30 135 30
137 13 137 -11 0 -20 -20 -31 -67z"/>
<path d="M8076 5348 c-10 -46 -20 -93 -23 -104 -3 -13 1 -24 10 -27 13 -5 23
19 28 65 0 4 4 22 9 39 19 65 22 109 7 109 -9 0 -19 -28 -31 -82z"/>
<path d="M9229 5428 c-7 -23 -27 -119 -30 -146 -9 -64 53 -87 118 -45 21 14
23 14 23 -1 0 -9 6 -16 13 -16 8 0 17 28 25 78 7 42 15 89 19 105 4 20 1 27
-10 27 -11 0 -19 -17 -27 -57 -14 -73 -31 -104 -66 -122 -61 -31 -77 34 -38
162 4 11 0 17 -10 17 -9 0 -16 -1 -17 -2z"/>
<path d="M9571 5328 c-17 -79 -19 -103 -9 -109 7 -4 14 -7 15 -5 3 3 43 195
43 207 0 5 -6 9 -14 9 -9 0 -20 -33 -35 -102z"/>
</g>
</svg>
