<?xml version="1.0" encoding="UTF-8" standalone="no"?>
<svg
   viewBox="0 0 60 60"
   version="1.1"
   id="svg24"
   sodipodi:docname="query.svg"
   inkscape:version="1.1.2 (08b2f3d93c, 2022-04-05)"
   xmlns:inkscape="http://www.inkscape.org/namespaces/inkscape"
   xmlns:sodipodi="http://sodipodi.sourceforge.net/DTD/sodipodi-0.dtd"
   xmlns="http://www.w3.org/2000/svg"
   xmlns:svg="http://www.w3.org/2000/svg">
  <defs
     id="defs28" />
  <sodipodi:namedview
     id="namedview26"
     pagecolor="#505050"
     bordercolor="#eeeeee"
     borderopacity="1"
     inkscape:pageshadow="0"
     inkscape:pageopacity="0"
     inkscape:pagecheckerboard="0"
     showgrid="false"
     inkscape:zoom="7.8333333"
     inkscape:cx="30"
     inkscape:cy="30"
     inkscape:window-width="1366"
     inkscape:window-height="731"
     inkscape:window-x="0"
     inkscape:window-y="0"
     inkscape:window-maximized="1"
     inkscape:current-layer="svg24" />
  <path
     transform="matrix(.84156 .30526 -.34531 .95198 8.0585 -12.747)"
     d="m50.769 33.089a20.422 20.422 0 1 0 -40.844 0 20.422 20.422 0 1 0 40.844 0z"
     fill="none"
     stroke="#030092"
     stroke-linecap="round"
     stroke-linejoin="round"
     stroke-width="4.595"
     id="path2" />
  <path
     transform="matrix(.93468 0 0 .93468 .34789 3.0639)"
     d="m29.52 48.167c5.5986 3.9445 11.324 5.3441 13.996 5.9803"
     fill="none"
     stroke="#030092"
     stroke-linecap="round"
     stroke-linejoin="round"
     stroke-width="4.6807"
     id="path4" />
  <g
     stroke="#030092"
     id="g18"
     style="fill:#ff0000">
    <path
       transform="matrix(0.25448,0,0,0.25448,-166,-2.946)"
       d="m 799.19,123.26 a 60.185,60.185 0 1 0 -120.37,0 60.185,60.185 0 1 0 120.37,1.1e-4 L 739.005,123.26 Z"
       fill="#ff7a00"
       fill-rule="evenodd"
       stroke-width="7.368"
       id="path6"
       style="fill:#ff0000" />
    <path
       transform="matrix(0.55786,0,0,0.55786,22.485,15.961)"
       d="m 13.381,45.887 0.91516,-3.7015 5.5926,-8.9482 -2.9488,1.4236 -5.796,-6.5078 1.0168,-0.40674 5.2876,4.8808 4.7791,-7.1179 -1.4236,-0.50842 -1.3219,1.5253 -2.0337,-2.237 0.91516,-0.61011 2.7455,0.81347 3.3556,-2.5421 h 2.3387 m -18.038,-25.421 -2.8075,1.0168 3.7623,4.4741 -3.9657,4.7791 -1.2202,-1.0168 1.4236,-1.1185 -3.7623,-1.0168 -4.7791,6.101 1.7286,0.30505 0.6101,2.237 1.7286,-2.3387 -0.30504,-1.8303 1.1185,-2.1354 h 0.91516 l -1.2202,2.3387 0.91516,1.2202 -0.10169,2.5421 -5.8977,1.6269 -3.7623,2.3387 0.71179,3.0505 -3.6606,-0.40674 -0.6101,2.237 -0.7118,1.4236 1.2202,0.71179 0.6101,0.40674 2.1354,0.10168 1.5253,-2.8472 h 0.81347 l 0.6101,-0.91516 2.7455,-0.91515 2.7455,3.6606 1.0168,-1.0168 -2.5421,-3.0505 h 1.0168 l 3.864,5.1859 1.1185,-2.9488 1.5253,-0.20337 0.40673,-3.4573 5.0842,1.0168 -0.10168,1.2202 -5.796,2.1354 0.71179,1.7286 4.0674,-0.81347 -0.10168,3.7623 -2.8472,1.0168 -4.2707,-0.71179 -0.71179,1.2202 -4.7791,-1.3219 -0.10169,-2.3387 -10.473,1.2202 -0.50842,2.237 -3.6606,2.237 -0.81347,4.8808 3.9657,5.6943 8.5414,1.3219 2.5421,1.0168 -0.40673,1.7286 2.1354,1.8303 0.40675,1.0168 -1.2202,1.2202 2.9488,1.2202"
       fill="none"
       stroke-linecap="round"
       stroke-linejoin="round"
       stroke-width="2.2407"
       id="path8"
       style="fill:#ff0000" />
    <path
       transform="matrix(0.55786,0,0,0.55786,22.485,15.961)"
       d="M -24.242,8.1218 -21.4965,7.105 V 6.0882 h 0.71179 V 7.105 l 1.4236,-0.10168 4.0674,-6.2027 -4.6775,1.932 V 2.63094"
       fill="none"
       stroke-linecap="round"
       stroke-linejoin="round"
       stroke-width="2.2407"
       id="path10"
       style="fill:#ff0000" />
    <path
       transform="matrix(0.55786,0,0,0.55786,22.485,15.961)"
       d="m -15.091,5.173 4.169,-1.7286 3.7623,-0.50842 4.0674,-4.2707 -4.6775,-0.6101 -3.1522,3.4572 -4.169,3.6606 z"
       fill="none"
       stroke-linecap="round"
       stroke-linejoin="round"
       stroke-width="2.2407"
       id="path12"
       style="fill:#ff0000" />
    <path
       transform="matrix(0.55786,0,0,0.55786,22.485,15.961)"
       d="m -7.2612,14.63 2.6438,-0.71179 -1.3219,-2.4404 0.71179,-0.6101 -0.81347,-0.81347 -1.2202,4.5758 z"
       fill="none"
       stroke-linecap="round"
       stroke-linejoin="round"
       stroke-width="2.2407"
       id="path14"
       style="fill:#ff0000" />
    <path
       transform="matrix(0.55786,0,0,0.55786,22.485,15.961)"
       d="m -7.668,13.409 0.30506,-1.6269 -1.7286,1.1185 1.4236,0.50842 z"
       fill="none"
       stroke-linecap="round"
       stroke-linejoin="round"
       stroke-width="2.2407"
       id="path16"
       style="fill:#ff0000" />
  </g>
  <text
     transform="matrix(3.604 0 -.86884 3.604 94.643 -115.13)"
     x="-6.99825"
     y="45.74902"
     fill="#7f7f7f"
     font-family="VAG Rounded Black SSi"
     font-size="12"
     font-weight="900"
     stroke="#333"
     stroke-width=".52025"
     writing-mode="lr"
     id="text22"
     style="fill:#ff0000;stroke:#ff0000"><tspan
       fill="#FF7A00"
       stroke="#FF7A00"
       stroke-width=".52025"
       id="tspan20"
       style="fill:#ff0000;stroke:#ff0000">+</tspan></text>
</svg>
