<?xml version="1.0" standalone="no"?>
<!DOCTYPE svg PUBLIC "-//W3C//DTD SVG 20010904//EN"
 "http://www.w3.org/TR/2001/REC-SVG-20010904/DTD/svg10.dtd">
<svg version="1.0" xmlns="http://www.w3.org/2000/svg"
 width="664.000000pt" height="664.000000pt" viewBox="0 0 664.000000 664.000000"
 preserveAspectRatio="xMidYMid meet">
<metadata>
Created by potrace 1.14, written by Peter Selinger 2001-2017
</metadata>
<g transform="translate(0.000000,664.000000) scale(0.100000,-0.100000)"
fill="#000000" stroke="none">
<path d="M2517 5844 c-1 -1 -49 -5 -107 -8 -58 -4 -116 -8 -130 -10 -14 -3
-47 -7 -75 -10 -85 -10 -234 -46 -370 -88 -421 -130 -739 -322 -1050 -633
-125 -124 -264 -289 -310 -366 -5 -10 -34 -56 -63 -102 -144 -234 -259 -543
-316 -852 -2 -11 -7 -45 -11 -75 -4 -30 -9 -64 -11 -75 -21 -112 -21 -530 0
-640 2 -11 7 -42 10 -70 13 -94 44 -235 80 -356 164 -553 546 -1045 1066
-1372 107 -67 427 -234 463 -241 36 -8 73 -20 82 -27 6 -4 15 -8 20 -8 6 -1
39 -10 75 -21 104 -30 194 -50 345 -75 169 -28 552 -27 725 1 150 24 474 106
494 125 6 5 16 9 24 9 8 0 28 6 45 14 18 7 57 24 87 36 94 38 296 146 393 211
338 226 631 548 826 907 45 84 150 315 155 345 1 7 13 44 25 82 38 118 72 260
86 362 3 21 7 47 10 58 2 11 7 58 11 105 4 47 8 96 9 110 2 14 3 61 4 105 l1
80 71 55 c40 30 77 60 83 65 6 6 45 37 86 70 301 239 616 537 804 760 90 107
201 259 213 293 3 10 11 24 18 32 14 18 63 135 71 170 13 56 15 139 4 179 -28
105 -153 182 -341 208 -99 14 -380 8 -519 -11 -147 -20 -216 -29 -220 -27 -7
2 -22 60 -34 130 -4 23 -20 24 -92 2 -38 -11 -69 -19 -70 -18 -1 1 -4 19 -8
39 -6 34 -5 38 19 44 23 6 25 10 20 43 -11 68 -16 94 -20 100 -2 4 -6 27 -10
51 -3 25 -11 65 -16 90 -6 25 -13 63 -16 85 -3 22 -7 42 -9 44 -4 4 -178 -39
-193 -49 -9 -5 -8 -26 3 -81 19 -94 47 -245 53 -284 7 -53 9 -54 47 -43 43 13
45 12 48 -32 3 -32 1 -34 -41 -47 -24 -7 -52 -15 -61 -18 -13 -4 -26 7 -48 42
-73 114 -163 107 -198 -14 -12 -41 -15 -78 -10 -139 l5 -83 -42 -12 c-161 -42
-173 -48 -148 -64 8 -5 114 19 183 41 13 4 19 -2 24 -23 22 -90 101 -211 140
-214 8 -1 20 -2 27 -3 42 -6 75 33 92 109 l11 50 65 21 c71 23 79 20 79 -32 0
-33 -13 -44 -51 -44 -15 0 -18 -5 -14 -22 8 -35 56 -298 62 -341 3 -21 11 -41
17 -43 6 -2 52 9 101 24 97 31 95 28 82 102 -31 173 -57 322 -57 326 0 3 -14
4 -32 2 -30 -3 -33 -1 -39 34 l-6 38 71 22 c39 12 76 28 83 36 17 21 70 26
248 27 129 0 170 -4 212 -18 49 -17 103 -64 103 -89 0 -20 -72 -152 -118 -218
-65 -92 -278 -302 -402 -395 -120 -90 -377 -265 -389 -265 -5 0 -14 -7 -21
-15 -22 -27 -36 -16 -54 43 -78 249 -230 545 -391 758 -171 226 -403 437 -637
579 -347 211 -679 337 -1003 381 -27 4 -58 8 -69 10 -41 7 -354 23 -359 18z
m2394 -609 c48 -70 85 -228 76 -324 -10 -119 -51 -151 -106 -84 -38 46 -94
186 -73 181 20 -4 82 16 82 26 0 21 -10 24 -46 13 -25 -7 -38 -7 -45 0 -11 11
-15 138 -5 178 2 11 5 23 5 27 1 4 11 16 23 28 19 17 24 18 42 6 12 -7 33 -30
47 -51z"/>
</g>
</svg>
